HIERARCHY
ROOT Hips
{
	OFFSET 0.000000 100.481300 0.000000
	CHANNELS 6 Xposition Yposition Zposition Xrotation Yrotation Zrotation
	JOINT Spine
	{
		OFFSET -0.279200 12.230698 -2.892100
		CHANNELS 3 Xrotation Yrotation Zrotation
		JOINT Spine1
		{
			OFFSET -0.325700 14.269203 -3.374200
			CHANNELS 3 Xrotation Yrotation Zrotation
			JOINT Spine2
			{
				OFFSET -0.372300 16.307602 -0.352600
				CHANNELS 3 Xrotation Yrotation Zrotation
				JOINT Neck
				{
					OFFSET -0.418800 17.814194 8.416900
					CHANNELS 3 Xrotation Yrotation Zrotation
					JOINT Head
					{
						OFFSET 0.000000 7.031097 3.806800
						CHANNELS 3 Xrotation Yrotation Zrotation
						JOINT HeadTop_End
						{
							OFFSET 0.000000 24.646606 12.978600
							CHANNELS 3 Xrotation Yrotation Zrotation
							End Site
							{
								OFFSET 0.000000 27.854965 0.000000
							}
						}
					}
				}
				JOINT LeftShoulder
				{
					OFFSET 16.952999 14.495407 -7.737500
					CHANNELS 3 Xrotation Yrotation Zrotation
					JOINT LeftArm
					{
						OFFSET 9.308998 -2.777710 0.208600
						CHANNELS 3 Xrotation Yrotation Zrotation
						JOINT LeftForeArm
						{
							OFFSET 29.972298 0.000000 0.000000
							CHANNELS 3 Xrotation Yrotation Zrotation
							JOINT LeftHand
							{
								OFFSET 26.026505 0.000000 0.000000
								CHANNELS 3 Xrotation Yrotation Zrotation
								JOINT LeftHandThumb1
								{
									OFFSET 12.240501 -7.147949 9.207150
									CHANNELS 3 Xrotation Yrotation Zrotation
									JOINT LeftHandThumb2
									{
										OFFSET 4.138618 -2.389435 2.389433
										CHANNELS 3 Xrotation Yrotation Zrotation
										JOINT LeftHandThumb3
										{
											OFFSET 2.726913 -1.574387 1.574386
											CHANNELS 3 Xrotation Yrotation Zrotation
											JOINT LeftHandThumb4
											{
												OFFSET 3.941010 -2.275345 2.275342
												CHANNELS 3 Xrotation Yrotation Zrotation
												End Site
												{
													OFFSET -0.005798 5.087799 0.009903
												}
											}
										}
									}
								}
								JOINT LeftHandIndex1
								{
									OFFSET 24.424698 -1.985611 5.953459
									CHANNELS 3 Xrotation Yrotation Zrotation
									JOINT LeftHandIndex2
									{
										OFFSET 6.426697 0.000000 0.000000
										CHANNELS 3 Xrotation Yrotation Zrotation
										JOINT LeftHandIndex3
										{
											OFFSET 5.337898 0.000000 0.000000
											CHANNELS 3 Xrotation Yrotation Zrotation
											JOINT LeftHandIndex4
											{
												OFFSET 4.409401 0.000000 0.000000
												CHANNELS 3 Xrotation Yrotation Zrotation
												End Site
												{
													OFFSET 0.000000 4.409363 0.014373
												}
											}
										}
									}
								}
								JOINT LeftHandMiddle1
								{
									OFFSET 23.810104 0.000000 0.000000
									CHANNELS 3 Xrotation Yrotation Zrotation
									JOINT LeftHandMiddle2
									{
										OFFSET 7.176498 0.000000 0.000000
										CHANNELS 3 Xrotation Yrotation Zrotation
										JOINT LeftHandMiddle3
										{
											OFFSET 6.774902 0.000000 0.000000
											CHANNELS 3 Xrotation Yrotation Zrotation
											JOINT LeftHandMiddle4
											{
												OFFSET 5.403328 0.000000 0.000000
												CHANNELS 3 Xrotation Yrotation Zrotation
												End Site
												{
													OFFSET -0.027702 5.403244 0.017414
												}
											}
										}
									}
								}
								JOINT LeftHandRing1
								{
									OFFSET 22.908401 -0.839279 -6.020567
									CHANNELS 3 Xrotation Yrotation Zrotation
									JOINT LeftHandRing2
									{
										OFFSET 6.337502 0.000000 0.000000
										CHANNELS 3 Xrotation Yrotation Zrotation
										JOINT LeftHandRing3
										{
											OFFSET 5.779297 0.000000 0.000000
											CHANNELS 3 Xrotation Yrotation Zrotation
											JOINT LeftHandRing4
											{
												OFFSET 4.965698 0.000000 0.000000
												CHANNELS 3 Xrotation Yrotation Zrotation
												End Site
												{
													OFFSET 0.000000 4.965668 0.016186
												}
											}
										}
									}
								}
								JOINT LeftHandPinky1
								{
									OFFSET 20.037003 -1.530319 -10.950146
									CHANNELS 3 Xrotation Yrotation Zrotation
									JOINT LeftHandPinky2
									{
										OFFSET 5.254700 0.000000 0.000000
										CHANNELS 3 Xrotation Yrotation Zrotation
										JOINT LeftHandPinky3
										{
											OFFSET 4.810204 0.000000 0.000000
											CHANNELS 3 Xrotation Yrotation Zrotation
											JOINT LeftHandPinky4
											{
												OFFSET 3.647202 0.000000 0.000000
												CHANNELS 3 Xrotation Yrotation Zrotation
												End Site
												{
													OFFSET 0.000000 3.647186 0.011889
												}
											}
										}
									}
								}
							}
						}
					}
				}
				JOINT RightShoulder
				{
					OFFSET -15.141001 14.495407 -7.737500
					CHANNELS 3 Xrotation Yrotation Zrotation
					JOINT RightArm
					{
						OFFSET -9.308998 -2.777710 0.208500
						CHANNELS 3 Xrotation Yrotation Zrotation
						JOINT RightForeArm
						{
							OFFSET -29.972300 0.000000 0.000000
							CHANNELS 3 Xrotation Yrotation Zrotation
							JOINT RightHand
							{
								OFFSET -26.026505 0.000000 0.000000
								CHANNELS 3 Xrotation Yrotation Zrotation
								JOINT RightHandThumb1
								{
									OFFSET -12.240601 -7.148026 9.207092
									CHANNELS 3 Xrotation Yrotation Zrotation
									JOINT RightHandThumb2
									{
										OFFSET -4.138618 -2.389435 2.389433
										CHANNELS 3 Xrotation Yrotation Zrotation
										JOINT RightHandThumb3
										{
											OFFSET -2.726974 -1.574417 1.574421
											CHANNELS 3 Xrotation Yrotation Zrotation
											JOINT RightHandThumb4
											{
												OFFSET -3.941010 -2.275345 2.275343
												CHANNELS 3 Xrotation Yrotation Zrotation
												End Site
												{
													OFFSET 0.005814 5.087799 0.009927
												}
											}
										}
									}
								}
								JOINT RightHandIndex1
								{
									OFFSET -24.424698 -1.985657 5.953444
									CHANNELS 3 Xrotation Yrotation Zrotation
									JOINT RightHandIndex2
									{
										OFFSET -6.426697 0.000000 0.000000
										CHANNELS 3 Xrotation Yrotation Zrotation
										JOINT RightHandIndex3
										{
											OFFSET -5.337898 0.000000 0.000000
											CHANNELS 3 Xrotation Yrotation Zrotation
											JOINT RightHandIndex4
											{
												OFFSET -4.409401 0.000000 0.000000
												CHANNELS 3 Xrotation Yrotation Zrotation
												End Site
												{
													OFFSET 0.000000 4.409363 0.014408
												}
											}
										}
									}
								}
								JOINT RightHandMiddle1
								{
									OFFSET -23.810097 0.000000 0.000000
									CHANNELS 3 Xrotation Yrotation Zrotation
									JOINT RightHandMiddle2
									{
										OFFSET -7.176498 0.000000 0.000000
										CHANNELS 3 Xrotation Yrotation Zrotation
										JOINT RightHandMiddle3
										{
											OFFSET -6.774902 0.000000 0.000000
											CHANNELS 3 Xrotation Yrotation Zrotation
											JOINT RightHandMiddle4
											{
												OFFSET -5.403328 0.000000 0.000000
												CHANNELS 3 Xrotation Yrotation Zrotation
												End Site
												{
													OFFSET 0.027702 5.403244 0.017457
												}
											}
										}
									}
								}
								JOINT RightHandRing1
								{
									OFFSET -22.908302 -0.839325 -6.020576
									CHANNELS 3 Xrotation Yrotation Zrotation
									JOINT RightHandRing2
									{
										OFFSET -6.337502 0.000000 0.000000
										CHANNELS 3 Xrotation Yrotation Zrotation
										JOINT RightHandRing3
										{
											OFFSET -5.779297 0.000000 0.000000
											CHANNELS 3 Xrotation Yrotation Zrotation
											JOINT RightHandRing4
											{
												OFFSET -4.965698 0.000000 0.000000
												CHANNELS 3 Xrotation Yrotation Zrotation
												End Site
												{
													OFFSET 0.000000 4.965668 0.016226
												}
											}
										}
									}
								}
								JOINT RightHandPinky1
								{
									OFFSET -20.037003 -1.530334 -10.950259
									CHANNELS 3 Xrotation Yrotation Zrotation
									JOINT RightHandPinky2
									{
										OFFSET -5.254700 0.000000 0.000000
										CHANNELS 3 Xrotation Yrotation Zrotation
										JOINT RightHandPinky3
										{
											OFFSET -4.810204 0.000000 0.000000
											CHANNELS 3 Xrotation Yrotation Zrotation
											JOINT RightHandPinky4
											{
												OFFSET -3.647202 0.000000 0.000000
												CHANNELS 3 Xrotation Yrotation Zrotation
												End Site
												{
													OFFSET 0.000000 3.647186 0.011917
												}
											}
										}
									}
								}
							}
						}
					}
				}
			}
		}
	}
	JOINT LeftUpLeg
	{
		OFFSET 15.427100 -6.655098 0.678600
		CHANNELS 3 Xrotation Yrotation Zrotation
		JOINT LeftLeg
		{
			OFFSET 4.081073 -39.591068 13.024000
			CHANNELS 3 Xrotation Yrotation Zrotation
			JOINT LeftFoot
			{
				OFFSET -4.081074 -37.707932 -15.979700
				CHANNELS 3 Xrotation Yrotation Zrotation
				JOINT LeftToeBase
				{
					OFFSET 5.346399 -15.068900 20.645000
					CHANNELS 3 Xrotation Yrotation Zrotation
					JOINT LeftToe_End
					{
						OFFSET 2.754700 0.931300 11.300900
						CHANNELS 3 Xrotation Yrotation Zrotation
						End Site
						{
							OFFSET 0.000000 11.669021 0.000000
						}
					}
				}
			}
		}
	}
	JOINT RightUpLeg
	{
		OFFSET -15.569500 -6.655098 0.678600
		CHANNELS 3 Xrotation Yrotation Zrotation
		JOINT RightLeg
		{
			OFFSET -4.081825 -39.591045 13.023800
			CHANNELS 3 Xrotation Yrotation Zrotation
			JOINT RightFoot
			{
				OFFSET 4.081824 -37.707954 -15.979600
				CHANNELS 3 Xrotation Yrotation Zrotation
				JOINT RightToeBase
				{
					OFFSET -5.346400 -15.068900 20.645000
					CHANNELS 3 Xrotation Yrotation Zrotation
					JOINT RightToe_End
					{
						OFFSET -2.754700 0.931300 11.300900
						CHANNELS 3 Xrotation Yrotation Zrotation
						End Site
						{
							OFFSET 0.000000 11.669021 0.000000
						}
					}
				}
			}
		}
	}
}
MOTION
Frames: 5
Frame Time: 0.033333
0.801015 91.295776 -0.473528 -4.069398 -41.414579 0.605413 2.924560 -0.114950 -0.577598 5.848340 -0.390397 -0.876002 5.848343 -0.390396 -0.876003 -0.883996 26.118206 -5.085119 -12.133239 13.409296 0.401836 -0.000000 0.000000 0.000000 -18.935195 7.366266 -4.623253 -4.189715 -19.755608 -74.317335 -22.453146 -68.272563 -27.042459 -100.597943 -26.404410 17.629808 3.592092 4.185665 -5.133821 1.252886 4.302578 1.889375 -0.000004 -0.000002 -0.000001 0.000000 -0.000004 -0.000001 7.554891 5.560381 -33.410386 -14.917809 -6.767413 -80.641892 -0.000004 -0.000016 -0.000001 0.000004 0.000001 -0.000001 -0.349206 -1.566801 -62.979241 -6.177639 -6.585485 -60.286180 -0.000004 0.000005 0.000006 0.000000 0.000000 0.000001 -5.286448 4.624231 -73.484687 0.757951 -3.521238 -58.282851 -0.000008 -0.000005 -0.000000 0.000001 0.000001 0.000000 -16.248800 1.424874 -86.150583 2.608806 -7.577994 -55.784727 0.000000 -0.000001 0.000001 0.000001 0.000001 0.000001 14.829377 0.115990 -0.444129 3.392384 38.346775 41.241642 -3.479711 115.438011 -0.032992 -33.753029 -20.046660 5.024209 15.407479 -4.518725 17.010991 11.550414 4.015423 -20.411414 -0.000002 -0.000014 -0.000013 -0.000001 -0.000000 -0.000002 1.857060 -0.976118 4.781777 -1.775919 -0.095300 22.317051 -0.000001 0.000002 -0.000003 -0.000000 0.000001 -0.000002 3.631160 5.779710 48.858819 -9.397593 -0.919658 110.759782 0.000001 0.000001 -0.000002 0.000000 -0.000002 0.000001 -8.676851 -5.659712 54.892308 -4.714164 8.864038 96.803773 -0.000001 -0.000002 -0.000002 -0.000000 0.000002 -0.000002 -12.562947 0.077598 69.885300 -3.484602 14.093091 79.770551 0.000003 0.000002 -0.000000 0.000002 0.000000 -0.000001 -21.377509 39.765566 19.536349 24.364057 5.610464 -0.971405 -2.799984 1.791933 -4.896214 0.002987 -0.026200 0.062613 0.000000 0.000000 -0.000000 0.137807 4.515919 -13.715500 24.189822 1.336559 1.211889 -17.994369 -18.972358 9.551396 -0.020495 -0.187042 0.446696 0.000000 0.000001 0.000000 
0.834106 91.225433 -0.427474 -4.003164 -41.397657 0.654062 2.931289 -0.125596 -0.578718 5.861716 -0.412369 -0.890071 5.861717 -0.412358 -0.890073 -0.959946 26.109711 -5.066536 -12.338369 13.376949 0.432554 0.000000 -0.000000 -0.000000 -18.940818 7.337020 -4.613967 -4.772253 -20.122446 -74.595242 -21.408555 -67.666172 -25.821315 -100.340369 -26.142745 17.637642 3.557489 4.030025 -5.057107 1.252889 4.302582 1.889371 -0.000000 -0.000002 -0.000001 0.000001 -0.000005 0.000000 7.554890 5.560384 -33.410383 -14.917808 -6.767413 -80.641892 -0.000006 -0.000015 -0.000002 -0.000002 -0.000000 -0.000001 -0.349207 -1.566800 -62.979228 -6.177641 -6.585486 -60.286180 -0.000005 0.000005 0.000006 -0.000002 0.000000 0.000000 -5.286449 4.624234 -73.484680 0.757948 -3.521240 -58.282858 -0.000008 -0.000004 0.000002 0.000001 -0.000000 0.000001 -16.248800 1.424874 -86.150576 2.608805 -7.577992 -55.784727 0.000001 0.000001 -0.000000 0.000002 -0.000000 0.000001 14.831699 0.112083 -0.416608 3.419549 38.221708 41.253352 -3.361792 114.997108 -0.152027 -33.939582 -19.335634 5.061086 15.407478 -4.518723 17.010993 11.550414 4.015420 -20.411423 -0.000003 -0.000012 -0.000014 -0.000000 0.000001 -0.000000 1.857059 -0.976116 4.781780 -1.775918 -0.095300 22.317052 -0.000002 0.000001 -0.000000 -0.000002 0.000000 -0.000004 3.631160 5.779711 48.858819 -9.397594 -0.919658 110.759782 0.000001 0.000001 -0.000001 0.000000 0.000001 0.000001 -8.676853 -5.659712 54.892314 -4.714163 8.864035 96.803773 0.000001 -0.000000 -0.000000 0.000001 -0.000000 -0.000000 -12.562948 0.077597 69.885307 -3.484603 14.093092 79.770544 0.000003 0.000000 0.000002 0.000001 -0.000001 0.000001 -21.575593 39.914686 19.661789 24.560882 5.641578 -0.981160 -2.947903 1.555087 -4.882825 -0.005733 -0.026214 0.062630 0.000000 -0.000001 -0.000000 -0.020228 4.274799 -13.838227 24.333614 1.402021 1.224575 -18.050879 -18.740811 9.660788 -0.044434 -0.186974 0.446564 -0.000000 0.000001 0.000000 
0.867957 91.079895 -0.307185 -3.881296 -41.433867 0.639585 2.950472 -0.139744 -0.559179 5.899836 -0.439249 -0.907121 5.899841 -0.439248 -0.907119 -1.223580 26.098474 -4.970841 -12.711773 13.393010 0.505279 -0.000000 -0.000000 -0.000000 -18.957849 7.325588 -4.522286 -6.281830 -20.940033 -75.657138 -18.564960 -65.927916 -22.604221 -100.101613 -25.434182 16.986358 3.616244 4.293879 -5.165514 1.252889 4.302588 1.889376 -0.000002 0.000000 -0.000003 0.000001 0.000000 0.000000 7.554890 5.560385 -33.410389 -14.917808 -6.767413 -80.641892 -0.000005 -0.000016 -0.000001 -0.000003 0.000001 -0.000001 -0.349206 -1.566799 -62.979235 -6.177640 -6.585485 -60.286173 -0.000003 0.000006 0.000006 -0.000000 0.000000 0.000000 -5.286447 4.624236 -73.484680 0.757950 -3.521242 -58.282858 -0.000009 -0.000005 0.000000 0.000000 -0.000000 -0.000001 -16.248795 1.424874 -86.150576 2.608803 -7.577995 -55.784730 0.000002 0.000002 -0.000001 0.000002 -0.000000 0.000000 14.825827 0.182919 -0.397356 3.707783 37.713808 41.061864 -3.144517 114.110755 -0.296064 -34.144102 -17.562827 5.036280 15.407479 -4.518721 17.010986 11.550414 4.015421 -20.411414 -0.000002 -0.000012 -0.000015 -0.000000 0.000000 -0.000000 1.857058 -0.976119 4.781780 -1.775918 -0.095299 22.317049 -0.000001 0.000001 -0.000001 -0.000001 0.000001 -0.000001 3.631160 5.779709 48.858816 -9.397593 -0.919659 110.759782 0.000002 0.000000 -0.000002 0.000000 0.000002 -0.000000 -8.676853 -5.659711 54.892311 -4.714165 8.864037 96.803779 0.000000 -0.000001 -0.000002 0.000001 0.000001 -0.000001 -12.562947 0.077597 69.885300 -3.484603 14.093096 79.770544 -0.000000 -0.000000 0.000001 0.000001 0.000001 -0.000001 -22.139201 40.313908 20.185272 25.048192 5.680432 -1.004464 -3.293040 1.002742 -4.853789 -0.007138 -0.026213 0.062635 0.000000 0.000000 -0.000000 -0.245228 4.062624 -13.873437 24.574230 1.507285 1.244132 -18.233549 -18.528611 9.654961 -0.051941 -0.186961 0.446522 0.000000 -0.000000 0.000000 
0.889139 90.788315 -0.069158 -3.637438 -41.562613 0.485274 2.979053 -0.178685 -0.500545 5.956392 -0.512257 -0.913206 5.956390 -0.512243 -0.913210 -1.963537 26.091874 -4.719907 -13.352398 13.598654 0.578294 0.000000 -0.000000 -0.000000 -18.991170 7.341283 -4.308903 -7.708488 -21.584632 -76.832395 -16.149395 -64.748069 -19.946207 -99.368003 -25.028503 16.766637 4.500712 7.916783 -6.544478 1.252888 4.302579 1.889374 -0.000003 0.000001 -0.000001 0.000001 -0.000002 -0.000002 7.554892 5.560384 -33.410383 -14.917808 -6.767408 -80.641885 -0.000002 -0.000016 -0.000002 0.000002 0.000001 -0.000001 -0.349205 -1.566798 -62.979235 -6.177640 -6.585489 -60.286180 -0.000003 0.000006 0.000007 -0.000002 0.000000 -0.000000 -5.286448 4.624232 -73.484687 0.757949 -3.521240 -58.282851 -0.000009 -0.000006 -0.000000 -0.000000 -0.000000 0.000001 -16.248800 1.424875 -86.150583 2.608804 -7.577992 -55.784730 -0.000002 -0.000001 -0.000000 -0.000001 -0.000001 0.000001 14.818164 0.153308 -0.555583 3.811260 37.033911 41.287264 -2.304734 113.084690 -0.958676 -34.093221 -15.214957 5.606442 15.407476 -4.518720 17.010989 11.550413 4.015422 -20.411414 -0.000002 -0.000013 -0.000016 0.000001 0.000000 0.000001 1.857059 -0.976117 4.781777 -1.775918 -0.095298 22.317052 -0.000001 0.000002 -0.000004 -0.000001 -0.000000 -0.000003 3.631160 5.779710 48.858816 -9.397593 -0.919660 110.759782 0.000002 0.000000 -0.000001 0.000000 -0.000001 -0.000000 -8.676854 -5.659711 54.892314 -4.714162 8.864036 96.803773 0.000001 0.000000 -0.000001 0.000003 -0.000001 0.000001 -12.562945 0.077597 69.885300 -3.484601 14.093093 79.770544 -0.000003 -0.000000 0.000001 -0.000001 -0.000000 0.000001 -23.285894 40.797738 21.348617 26.056979 5.664734 -1.055512 -4.041669 0.275344 -5.001048 -0.065193 -0.026310 0.062768 -0.000000 0.000000 -0.000000 -0.622654 3.907827 -13.706139 25.000523 1.744027 1.280442 -18.591280 -18.398016 9.551732 -0.025958 -0.187025 0.446665 0.000000 0.000002 -0.000000 
0.920065 90.535988 0.172857 -3.246756 -41.439249 0.453558 3.004319 -0.274587 -0.431840 6.005846 -0.699481 -0.884278 6.005841 -0.699475 -0.884281 -3.186287 26.062817 -4.342028 -14.188322 13.925531 0.474037 0.000000 0.000000 0.000000 -19.032433 7.306263 -4.089153 -8.397654 -22.266482 -77.114598 -15.931368 -65.051958 -19.570930 -97.702222 -25.571345 17.898996 6.094998 13.590324 -8.196106 1.252888 4.302591 1.889375 -0.000001 0.000001 -0.000003 0.000000 0.000003 0.000000 7.554891 5.560384 -33.410386 -14.917806 -6.767416 -80.641885 -0.000005 -0.000016 -0.000001 -0.000002 0.000001 -0.000000 -0.349210 -1.566803 -62.979235 -6.177639 -6.585486 -60.286180 -0.000006 0.000006 0.000006 -0.000000 0.000001 -0.000000 -5.286450 4.624231 -73.484680 0.757951 -3.521240 -58.282851 -0.000010 -0.000004 0.000001 -0.000000 -0.000001 -0.000000 -16.248800 1.424874 -86.150576 2.608801 -7.577992 -55.784727 -0.000002 0.000000 -0.000000 0.000001 0.000000 -0.000001 14.845222 -0.348203 -0.865314 2.858027 36.601512 42.978443 -0.758976 111.700333 -2.376697 -33.609052 -12.928862 7.732351 15.407479 -4.518723 17.010989 11.550413 4.015424 -20.411421 -0.000005 -0.000013 -0.000015 -0.000004 -0.000002 0.000001 1.857059 -0.976119 4.781778 -1.775918 -0.095300 22.317051 0.000000 0.000002 -0.000005 0.000000 0.000001 -0.000002 3.631161 5.779707 48.858819 -9.397591 -0.919658 110.759782 0.000002 -0.000001 -0.000002 0.000001 0.000001 -0.000000 -8.676852 -5.659713 54.892308 -4.714161 8.864035 96.803773 -0.000000 0.000000 0.000001 0.000001 0.000002 -0.000001 -12.562948 0.077595 69.885307 -3.484603 14.093096 79.770544 0.000000 -0.000002 0.000004 0.000001 -0.000000 0.000000 -24.269172 40.914991 22.196839 26.886454 5.625147 -1.102473 -4.828820 -0.297061 -5.422240 -0.331684 -0.027892 0.066132 0.000000 -0.000001 -0.000000 -1.035635 3.363659 -13.657231 25.260389 2.081868 1.319707 -18.750368 -18.209556 9.788224 -0.050807 -0.186912 0.446530 0.000000 0.000001 0.000000 
